<?xml version="1.0" encoding="utf-8"?>
<svg width="256" height="256" preserveAspectRatio="xMidYMid" version="1.1" xmlns="http://www.w3.org/2000/svg">
  <defs/>
  <g transform="matrix(1.16861, 0, 0, 1.155013, 17.07803, 28.9491)" style="">
    <title>Layer 1</title>
    <g stroke="null" id="svg_1">
      <polygon stroke="null" id="svg_2" points="59.59493294233744,142.04404992843774 64.10970238169011,136.21698636383007 97.51897708189972,136.21698636383007 114.93308294856251,158.46576223019292 111.8372449096787,166.01445565132235 68.75345944001583,166.01445565132235 69.7854054529771,158.46576223019292 " fill="#169FCC"/>
      <polygon stroke="null" id="svg_3" points="69.81120860941883,66.18073097150955 85.94316627819535,38.31102671074632 104.74157403085337,38.31102671074632 189.00106322879947,136.18209774758907 182.46829657223134,166.01445565132235 146.33803086610897,166.01445565132235 148.6045066782317,157.6404555093559 " fill="#14B59A"/>
      <polygon stroke="null" id="svg_4" points="89.3923965971826,33.01581458484134 97.11678354717696,18.73142149682235 120.28993313186584,0 159.99597220709984,31.129196045299977 154.8463809071036,36.38477404976811 161.75767271521,45.95262219709548 161.75767271521,56.19426167414349 141.9724139224072,72.3652761180274 108.7711134516885,33.01581458484134 " fill="#1BC263"/>
      <polygon stroke="null" id="svg_5" points="28.03164849801624,95.25730028512044 38.52691199311266,95.25730028512044 65.89430523297688,72.3652761180274 102.16274540551967,114.50740127536301 91.93318232388992,129.85546344490467 58.45462606414458,129.85546344490467 35.33847886827698,159.2509081770877 30.02441990511943,166.01445565132235 0,166.01445565132235 0,129.98553253212413 " fill="#16BDCC"/>
    </g>
  </g>
</svg>